<?xml version="1.0" standalone="no"?>
<!DOCTYPE svg PUBLIC "-//W3C//DTD SVG 20010904//EN"
 "http://www.w3.org/TR/2001/REC-SVG-20010904/DTD/svg10.dtd">
<svg version="1.0" xmlns="http://www.w3.org/2000/svg"
 width="260.000000pt" height="260.000000pt" viewBox="0 0 260.000000 260.000000"
 preserveAspectRatio="xMidYMid meet">
<metadata>
Created by potrace 1.14, written by Peter Selinger 2001-2017
</metadata>
<g transform="translate(0.000000,260.000000) scale(0.100000,-0.100000)"
fill="#000000" stroke="none">
<path d="M1179 2559 c-481 -43 -907 -375 -1073 -837 -94 -262 -94 -592 0 -854
145 -402 493 -713 904 -807 128 -29 190 -36 190 -19 0 7 -25 44 -55 81 -107
134 -173 254 -229 416 -63 182 -80 282 -80 481 0 192 15 300 64 486 44 167
132 394 152 394 15 0 106 -84 175 -162 184 -208 318 -476 373 -748 25 -121 44
-395 36 -504 -3 -43 -3 -77 -1 -74 3 3 13 45 22 94 18 98 24 410 10 546 l-7
76 60 58 c69 66 180 153 278 217 90 59 235 137 255 137 25 0 32 -71 31 -300 0
-171 -4 -222 -22 -306 -59 -276 -189 -538 -353 -718 l-64 -70 70 37 c97 51
228 152 308 236 227 241 347 543 347 875 0 352 -126 655 -374 901 -273 272
-626 398 -1017 364z"/>
<path d="M1080 1603 c-53 -127 -79 -211 -107 -343 -34 -161 -38 -406 -9 -538
36 -166 100 -315 194 -447 46 -65 216 -245 232 -245 12 0 88 172 120 269 47
145 64 250 64 406 0 159 -18 268 -66 403 -73 209 -208 415 -346 531 l-50 41
-32 -77z"/>
</g>
</svg>
